<mxfile host="app.diagrams.net" modified="2023-10-09T12:56:31.404Z" agent="Mozilla/5.0 (Windows NT 10.0; Win64; x64) AppleWebKit/537.36 (KHTML, like Gecko) Chrome/117.0.0.0 Safari/537.36" version="22.0.4" etag="IK-Vm_nsYNc0smbYT-Lh" type="github">
  <diagram name="Page-1" id="3cnkea4U8z847-Wv_roQ">
    <mxGraphModel>
      <root>
        <mxCell id="0" />
        <mxCell id="1" parent="0" />
      </root>
    </mxGraphModel>
  </diagram>
</mxfile>
